<svg id="Capa_1" enable-background="new 0 0 497.642 497.642" height="512" viewBox="0 0 497.642 497.642" width="512" xmlns="http://www.w3.org/2000/svg"><g><path d="m479.761 441.426h-266.301c-9.875 0-17.881-8.005-17.881-17.881v-404.573c0-9.875 8.005-17.881 17.881-17.881h266.301c9.875 0 17.881 8.005 17.881 17.881v404.574c0 9.875-8.006 17.88-17.881 17.88z" fill="#efedef"/><g><path d="m284.182 36.215h-88.603v387.331c0 9.875 8.005 17.881 17.881 17.881h108.602v-367.331c0-20.888-16.993-37.881-37.88-37.881z" fill="#e5e1e5"/><path d="m340.86 256.319-58.177-58.004c-16.705-16.655-16.705-43.659 0-60.314 16.705-16.655 43.789-16.655 60.494 0l2.02 2.014 4.898-4.49c16.877-15.472 42.988-14.926 59.199 1.238l1.242 1.239c16.705 16.655 16.705 43.659 0 60.314l-58.177 58.004c-3.174 3.165-8.323 3.165-11.499-.001z" fill="#fd8087"/><path d="m322.062 126.501c-13.751-2.983-28.688.843-39.378 11.501-16.705 16.655-16.705 43.659 0 60.314l39.378 39.261z" fill="#fe646f"/><path d="m284.182 496.551h-266.301c-9.876 0-17.881-8.006-17.881-17.881v-404.574c0-9.875 8.005-17.881 17.881-17.881h266.301c9.875 0 17.881 8.005 17.881 17.881v404.574c-.001 9.875-8.006 17.881-17.881 17.881z" fill="#f9f7f8"/><path d="m112.84 465.105c-34.157 0-61.847-27.69-61.847-61.847v-347.043h-33.112c-9.876 0-17.881 8.006-17.881 17.881v404.574c0 9.875 8.005 17.881 17.881 17.881h266.301c9.875 0 17.881-8.005 17.881-17.881v-13.564h-189.223z" fill="#efedef"/><g><g id="XMLID_169_"><g><path d="m200.633 236.891c17.65 4.49 29.66 21 28.56 39.24-1.13 18.68-16.02 33.95-34.63 35.54-12.09 1.03-23.67-3.55-31.73-12.56-3-3.36-7.31-5.29-11.8-5.29-4.5 0-8.8 1.93-11.81 5.29-8.05 9.01-19.62 13.59-31.72 12.56-18.62-1.59-33.51-16.86-34.63-35.54-1.1-18.24 10.91-34.75 28.56-39.24 7.49-1.91 12.54-9.16 11.74-16.88-.13-1.28-.2-2.6-.2-3.9 0-20.98 17.07-38.05 38.06-38.05 20.98 0 38.05 17.07 38.05 38.05 0 1.3-.06 2.62-.2 3.9-.06.54-.08 1.08-.08 1.61 0 7.1 4.85 13.49 11.83 15.27z" fill="#aa9ea9"/></g></g></g><g><path d="m151.031 356.823c-4.143 0-7.5-3.358-7.5-7.5v-70.945c0-4.142 3.357-7.5 7.5-7.5s7.5 3.358 7.5 7.5v70.945c0 4.143-3.358 7.5-7.5 7.5z" fill="#aa9ea9"/></g></g></g></svg>